<svg width="392" height="301" viewBox="0 0 392 301" fill="none" xmlns="http://www.w3.org/2000/svg">
  <path d="M90.2615 208.31L120.612 160.613L52.6417 117.421L17.5404 172.584L73.7599 208.31H90.2615Z" fill="#F0F0F0" />
  <path d="M133.27 223.189H58.0922V208.066H133.27V223.189ZM59.0685 222.213H132.294V209.041H59.0685V222.213Z"
    fill="#3F3D56" />
  <path
    d="M123.995 220.506C126.691 220.506 128.877 218.322 128.877 215.627C128.877 212.933 126.691 210.749 123.995 210.749C121.299 210.749 119.113 212.933 119.113 215.627C119.113 218.322 121.299 220.506 123.995 220.506Z"
    fill="#6BDE23" />
  <path
    d="M110.326 220.506C113.022 220.506 115.208 218.322 115.208 215.627C115.208 212.933 113.022 210.749 110.326 210.749C107.63 210.749 105.445 212.933 105.445 215.627C105.445 218.322 107.63 220.506 110.326 220.506Z"
    fill="#6BDE23" />
  <path
    d="M96.6575 220.506C99.3536 220.506 101.539 218.322 101.539 215.627C101.539 212.933 99.3536 210.749 96.6575 210.749C93.9615 210.749 91.7758 212.933 91.7758 215.627C91.7758 218.322 93.9615 220.506 96.6575 220.506Z"
    fill="#6BDE23" />
  <path
    d="M82.9888 220.506C85.6849 220.506 87.8705 218.322 87.8705 215.627C87.8705 212.933 85.6849 210.749 82.9888 210.749C80.2927 210.749 78.1071 212.933 78.1071 215.627C78.1071 218.322 80.2927 220.506 82.9888 220.506Z"
    fill="#6BDE23" />
  <path
    d="M69.32 220.506C72.0161 220.506 74.2017 218.322 74.2017 215.627C74.2017 212.933 72.0161 210.749 69.32 210.749C66.624 210.749 64.4384 212.933 64.4384 215.627C64.4384 218.322 66.624 220.506 69.32 220.506Z"
    fill="#6BDE23" />
  <path
    d="M222.605 55.1264V18.0502H241.156V0H150.356V90.7391H227.975V81.8673C227.975 80.2135 228.301 78.5759 228.934 77.048C229.568 75.5201 230.496 74.1318 231.666 72.9624C232.836 71.793 234.226 70.8654 235.754 70.2325C237.283 69.5997 238.922 69.2739 240.577 69.2739H241.156V55.1264H222.605Z"
    fill="#F0F0F0" />
  <path d="M323.168 234.165H262.635V246.849H323.168V234.165Z" fill="#6BDE23" />
  <path d="M336.349 171.721H247.502V183.43H336.349V171.721Z" fill="#F0F0F0" />
  <path d="M379.796 300.024H0V301H379.796V300.024Z" fill="#3F3D56" />
  <path
    d="M351.573 301H240.577C237.106 300.996 233.779 299.617 231.325 297.164C228.871 294.712 227.491 291.387 227.487 287.919V81.8674C227.491 78.3992 228.871 75.0742 231.325 72.6218C233.779 70.1695 237.106 68.79 240.577 68.7861H351.573C355.043 68.79 358.37 70.1695 360.824 72.6218C363.278 75.0742 364.659 78.3992 364.663 81.8674V287.919C364.659 291.387 363.278 294.712 360.824 297.164C358.37 299.617 355.043 300.996 351.573 301ZM240.577 69.7618C237.365 69.7654 234.286 71.042 232.015 73.3114C229.744 75.5809 228.467 78.6579 228.463 81.8674V287.919C228.467 291.128 229.744 294.205 232.015 296.475C234.286 298.744 237.365 300.021 240.577 300.024H351.573C354.784 300.021 357.863 298.744 360.134 296.475C362.405 294.205 363.683 291.128 363.686 287.919V81.8674C363.683 78.6579 362.405 75.5809 360.134 73.3114C357.863 71.042 354.784 69.7654 351.573 69.7618H240.577Z"
    fill="#3F3D56" />
  <path
    d="M282.894 78.543C282.315 78.543 281.748 78.3713 281.267 78.0497C280.785 77.728 280.41 77.2709 280.188 76.736C279.966 76.2012 279.908 75.6126 280.021 75.0448C280.134 74.477 280.413 73.9555 280.823 73.5461C281.233 73.1368 281.755 72.858 282.323 72.7451C282.891 72.6321 283.48 72.6901 284.015 72.9116C284.55 73.1332 285.008 73.5083 285.329 73.9897C285.651 74.471 285.823 75.037 285.823 75.6159C285.822 76.3919 285.513 77.136 284.964 77.6847C284.415 78.2334 283.671 78.5421 282.894 78.543ZM282.894 73.6645C282.508 73.6645 282.13 73.779 281.809 73.9934C281.488 74.2078 281.238 74.5126 281.09 74.8691C280.942 75.2257 280.904 75.618 280.979 75.9966C281.054 76.3751 281.24 76.7228 281.513 76.9957C281.786 77.2686 282.134 77.4545 282.513 77.5298C282.892 77.6051 283.285 77.5664 283.641 77.4187C283.998 77.271 284.303 77.0209 284.518 76.7C284.732 76.3791 284.847 76.0018 284.847 75.6159C284.846 75.0985 284.64 74.6025 284.274 74.2367C283.908 73.8708 283.412 73.6651 282.894 73.6645Z"
    fill="#3F3D56" />
  <path d="M311.696 75.1281H290.217V76.1037H311.696V75.1281Z" fill="#3F3D56" />
  <path
    d="M355.875 82.9335V121.961C345.518 121.961 335.585 117.849 328.261 110.53C320.937 103.211 316.822 93.2841 316.822 82.9335H355.875Z"
    fill="#6BDE23" />
  <path d="M356.364 287.828H235.786V82.4457H356.364V287.828ZM236.762 286.853H355.387V83.4214H236.762V286.853Z"
    fill="#3F3D56" />
  <path opacity="0.1"
    d="M327.562 119.522C334.841 119.522 340.742 113.625 340.742 106.35C340.742 99.0755 334.841 93.1783 327.562 93.1783C320.282 93.1783 314.381 99.0755 314.381 106.35C314.381 113.625 320.282 119.522 327.562 119.522Z"
    fill="black" />
  <path
    d="M325.609 120.985C332.888 120.985 338.789 115.088 338.789 107.814C338.789 100.539 332.888 94.6418 325.609 94.6418C318.329 94.6418 312.428 100.539 312.428 107.814C312.428 115.088 318.329 120.985 325.609 120.985Z"
    fill="#6BDE23" />
  <path d="M259.706 90.7391H241.156V97.5689H259.706V90.7391Z" fill="#3F3D56" />
  <path d="M269.958 155.622H251.407V162.452H269.958V155.622Z" fill="#3F3D56" />
  <path d="M341.23 180.99H251.407V168.306H341.23V180.99ZM252.384 180.015H340.254V169.282H252.384V180.015Z"
    fill="#3F3D56" />
  <path d="M336.349 208.797H247.502V220.506H336.349V208.797Z" fill="#F0F0F0" />
  <path d="M269.958 192.699H251.407V199.528H269.958V192.699Z" fill="#3F3D56" />
  <path d="M341.23 218.066H251.407V205.383H341.23V218.066ZM252.384 217.091H340.254V206.358H252.384V217.091Z"
    fill="#3F3D56" />
  <path d="M327.073 243.922H265.564V230.263H327.073V243.922ZM266.54 242.947H326.097V231.238H266.54V242.947Z"
    fill="#3F3D56" />
  <path
    d="M338.79 176.112C338.789 177.116 338.479 178.096 337.901 178.918C337.323 179.739 336.505 180.362 335.56 180.702C334.614 181.042 333.587 181.082 332.617 180.817C331.648 180.551 330.784 179.994 330.144 179.219L330.139 179.215C329.673 178.649 329.339 177.985 329.165 177.273C328.99 176.561 328.978 175.819 329.13 175.102C329.282 174.384 329.594 173.711 330.042 173.13C330.49 172.55 331.064 172.078 331.72 171.75C332.376 171.422 333.097 171.245 333.831 171.234C334.564 171.223 335.291 171.377 335.957 171.685C336.622 171.993 337.21 172.447 337.676 173.013C338.142 173.579 338.474 174.243 338.648 174.956C338.648 174.956 338.648 174.957 338.648 174.958C338.649 174.958 338.649 174.959 338.649 174.959C338.65 174.96 338.65 174.96 338.651 174.96C338.652 174.96 338.652 174.961 338.653 174.961C338.743 175.338 338.789 175.724 338.79 176.112Z"
    fill="#6BDE23" />
  <path opacity="0.1"
    d="M338.79 176.112C338.789 177.116 338.479 178.096 337.901 178.918C337.323 179.739 336.505 180.362 335.56 180.702C334.614 181.042 333.587 181.082 332.617 180.817C331.648 180.551 330.784 179.994 330.144 179.219L330.139 179.215C330.049 178.837 330.003 178.451 330.003 178.063C330.003 177.059 330.313 176.079 330.891 175.257C331.469 174.436 332.287 173.813 333.232 173.473C334.178 173.133 335.206 173.093 336.175 173.358C337.144 173.624 338.008 174.181 338.648 174.956C338.648 174.956 338.648 174.957 338.648 174.958C338.649 174.958 338.649 174.959 338.649 174.959C338.65 174.96 338.65 174.96 338.651 174.96C338.652 174.96 338.652 174.961 338.653 174.961C338.743 175.338 338.789 175.724 338.79 176.112Z"
    fill="black" />
  <path
    d="M335.861 183.917C338.557 183.917 340.742 181.733 340.742 179.039C340.742 176.345 338.557 174.16 335.861 174.16C333.164 174.16 330.979 176.345 330.979 179.039C330.979 181.733 333.164 183.917 335.861 183.917Z"
    fill="#6BDE23" />
  <path
    d="M338.79 213.188C338.789 214.192 338.479 215.172 337.901 215.994C337.323 216.815 336.505 217.439 335.56 217.778C334.614 218.118 333.587 218.158 332.617 217.893C331.648 217.628 330.784 217.07 330.144 216.296L330.139 216.291C329.673 215.725 329.339 215.061 329.165 214.349C328.99 213.637 328.978 212.895 329.13 212.178C329.282 211.461 329.594 210.787 330.042 210.207C330.49 209.626 331.064 209.154 331.72 208.826C332.376 208.498 333.097 208.321 333.831 208.31C334.564 208.299 335.291 208.453 335.957 208.761C336.622 209.069 337.21 209.523 337.676 210.089C338.142 210.656 338.474 211.32 338.648 212.032C338.648 212.032 338.648 212.033 338.648 212.034C338.649 212.034 338.649 212.035 338.649 212.035C338.65 212.036 338.65 212.036 338.651 212.036C338.652 212.037 338.652 212.037 338.653 212.037C338.743 212.414 338.789 212.8 338.79 213.188Z"
    fill="#6BDE23" />
  <path opacity="0.1"
    d="M338.79 213.188C338.789 214.192 338.479 215.172 337.901 215.994C337.323 216.815 336.505 217.439 335.56 217.778C334.614 218.118 333.587 218.158 332.617 217.893C331.648 217.628 330.784 217.07 330.144 216.296L330.139 216.291C330.049 215.914 330.003 215.527 330.003 215.139C330.003 214.135 330.313 213.155 330.891 212.334C331.469 211.512 332.287 210.889 333.232 210.549C334.178 210.209 335.206 210.169 336.175 210.434C337.144 210.7 338.008 211.258 338.648 212.032C338.648 212.032 338.648 212.033 338.648 212.034C338.649 212.034 338.649 212.035 338.649 212.035C338.65 212.036 338.65 212.036 338.651 212.036C338.652 212.037 338.652 212.037 338.653 212.037C338.743 212.414 338.789 212.8 338.79 213.188Z"
    fill="black" />
  <path
    d="M335.861 220.994C338.557 220.994 340.742 218.809 340.742 216.115C340.742 213.421 338.557 211.237 335.861 211.237C333.164 211.237 330.979 213.421 330.979 216.115C330.979 218.809 333.164 220.994 335.861 220.994Z"
    fill="#6BDE23" />
  <path d="M253.848 23.4165H228.463V48.7844H253.848V23.4165Z" fill="#F0F0F0" />
  <path
    d="M327.562 41.9546C326.403 41.9546 325.27 41.6113 324.307 40.968C323.344 40.3248 322.593 39.4105 322.15 38.3408C321.706 37.2711 321.59 36.094 321.816 34.9584C322.042 33.8228 322.6 32.7797 323.419 31.961C324.239 31.1423 325.282 30.5847 326.419 30.3588C327.555 30.133 328.733 30.2489 329.803 30.692C330.874 31.1351 331.789 31.8854 332.432 32.8481C333.076 33.8108 333.42 34.9427 333.42 36.1005C333.418 37.6526 332.8 39.1406 331.702 40.2381C330.604 41.3356 329.115 41.9529 327.562 41.9546ZM327.562 31.222C326.596 31.222 325.652 31.5082 324.85 32.0442C324.047 32.5803 323.421 33.3422 323.052 34.2336C322.682 35.125 322.585 36.1059 322.774 37.0522C322.962 37.9985 323.427 38.8678 324.11 39.5501C324.792 40.2323 325.662 40.697 326.609 40.8852C327.556 41.0734 328.538 40.9768 329.43 40.6076C330.322 40.2383 331.084 39.6131 331.621 38.8108C332.157 38.0086 332.443 37.0654 332.443 36.1005C332.442 34.8071 331.927 33.5671 331.012 32.6525C330.097 31.738 328.856 31.2235 327.562 31.222Z"
    fill="#3F3D56" />
  <path d="M198.685 123.425H185.993V110.741H198.685V123.425ZM186.969 122.449H197.709V111.716H186.969V122.449Z"
    fill="#3F3D56" />
  <path d="M392 218.066H379.308V205.383H392V218.066ZM380.284 217.091H391.024V206.358H380.284V217.091Z" fill="#3F3D56" />
  <path
    d="M141.57 133.019L143.749 134.191L151.16 138.183L163.125 144.625L170.098 131.697C170.755 130.482 171.165 129.15 171.306 127.776C171.447 126.403 171.315 125.015 170.919 123.692C170.522 122.37 169.869 121.138 168.996 120.068C168.122 118.998 167.046 118.111 165.83 117.457C163.229 116.054 160.25 115.512 157.321 115.909C154.393 116.306 151.666 117.622 149.534 119.667L149.53 119.67C148.481 120.677 147.596 121.842 146.906 123.122L141.57 133.019Z"
    fill="#2F2E41" />
  <path d="M174.228 264.869L172.766 280.938L167.284 281.668L163.63 263.408L174.228 264.869Z" fill="#FFB8B8" />
  <path
    d="M165.822 281.668C165.822 281.668 172.766 278.016 174.228 280.938C174.228 280.938 173.131 289.703 177.517 290.799C181.902 291.894 183.73 299.564 177.517 300.294C171.304 301.025 167.284 298.833 165.091 298.833C162.899 298.833 165.091 291.164 165.091 291.164L165.822 281.668Z"
    fill="#2F2E41" />
  <path d="M130.007 264.869L131.469 280.938L136.951 281.668L140.605 263.408L130.007 264.869Z" fill="#FFB8B8" />
  <path
    d="M138.413 281.668C138.413 281.668 131.469 278.016 130.007 280.938C130.007 280.938 131.104 289.703 126.718 290.799C122.333 291.894 120.505 299.564 126.718 300.294C132.931 301.025 136.951 298.833 139.144 298.833C141.336 298.833 139.144 291.164 139.144 291.164L138.413 281.668Z"
    fill="#2F2E41" />
  <path
    d="M159.975 135.948C165.223 135.948 169.477 131.697 169.477 126.452C169.477 121.208 165.223 116.957 159.975 116.957C154.727 116.957 150.473 121.208 150.473 126.452C150.473 131.697 154.727 135.948 159.975 135.948Z"
    fill="#FFB8B8" />
  <path
    d="M129.642 145.078L137.316 157.13L146.453 156.4L161.437 157.496C161.437 157.496 162.851 154.669 164.006 151.919C164.638 150.545 165.124 149.109 165.457 147.635C165.822 145.078 160.706 142.522 160.706 142.522C160.706 142.522 160.505 142.485 160.169 142.405C159.723 142.299 159.036 142.124 158.283 141.868C156.583 141.291 154.54 140.312 154.127 138.87C153.397 136.313 158.878 132.661 158.878 132.661L152.3 126.452C152.3 126.452 146.457 134.564 139.359 136.412C138.948 136.52 138.531 136.606 138.109 136.667C138.088 136.671 138.069 136.675 138.047 136.678C130.373 137.774 129.642 145.078 129.642 145.078Z"
    fill="#FFB8B8" />
  <path
    d="M133.662 141.791L129.642 145.078C129.642 145.078 126.353 160.782 127.449 165.165C128.545 169.548 127.084 173.565 127.084 174.295C127.084 175.026 123.795 202.417 123.795 202.417C123.795 202.417 117.216 217.025 124.16 215.565C131.104 214.104 128.545 199.495 128.545 199.495L136.951 173.93V152.382L133.662 141.791Z"
    fill="#FFB8B8" />
  <path
    d="M162.533 144.713L165.457 146.904L166.919 177.582L177.882 203.878C177.882 203.878 185.922 216.66 180.806 217.025C175.689 217.391 172.4 203.878 172.4 203.878L162.533 178.678L161.071 154.209L162.533 144.713Z"
    fill="#FFB8B8" />
  <path
    d="M144.26 146.904C144.26 146.904 151.569 152.017 163.264 150.191C163.264 150.191 166.553 156.765 164.726 160.417C162.899 164.069 166.919 172.835 167.649 173.93C168.38 175.026 176.786 197.669 179.71 222.138C182.633 246.608 190.673 263.408 183.73 265.599C176.786 267.79 162.533 270.347 161.071 268.155C159.609 265.964 157.417 211.547 157.417 211.547L153.397 232.364C153.397 232.364 158.878 267.79 154.858 268.521C150.838 269.251 125.622 267.06 126.353 262.677C127.084 258.295 134.393 235.286 134.393 235.286C134.393 235.286 134.027 189.269 141.337 180.504C141.337 180.504 144.26 175.756 140.24 169.548C136.22 163.339 136.586 153.478 136.586 153.478C136.586 153.478 139.509 153.478 144.26 146.904Z"
    fill="#2F2E41" />
  <path d="M138.109 136.667L144.26 150.191L145.722 149.461L139.359 136.412L138.109 136.667Z" fill="#2F2E41" />
  <path
    d="M158.283 141.868L162.899 152.017L164.006 151.919L163.629 150.191L160.169 142.405C159.723 142.299 159.036 142.124 158.283 141.868Z"
    fill="#2F2E41" />
  <path
    d="M143.748 134.191C144.1 135.321 144.777 136.322 145.695 137.069C146.613 137.816 147.732 138.275 148.91 138.39C150.089 138.505 151.275 138.269 152.32 137.713C153.365 137.157 154.222 136.306 154.785 135.265C150.162 129.224 154.127 125.43 161.638 122.559C162.203 121.51 162.444 120.316 162.329 119.13C162.214 117.944 161.748 116.819 160.991 115.898C158.921 115.633 156.818 115.834 154.835 116.486C152.853 117.138 151.042 118.225 149.534 119.667L149.53 119.67L144.194 129.56C143.814 130.263 143.579 131.035 143.503 131.831C143.426 132.626 143.51 133.429 143.748 134.191Z"
    fill="#2F2E41" />
  <path
    d="M154.31 129.739C155.017 129.739 155.589 128.758 155.589 127.548C155.589 126.338 155.017 125.357 154.31 125.357C153.604 125.357 153.031 126.338 153.031 127.548C153.031 128.758 153.604 129.739 154.31 129.739Z"
    fill="#FFB8B8" />
  <path
    d="M158.122 123.972L169.108 128.947L171.121 124.506C170.774 122.883 170.048 121.364 169.002 120.076L161.44 116.654L158.122 123.972Z"
    fill="#2F2E41" />
  <path
    d="M184.528 221.969C187.224 221.969 189.41 219.785 189.41 217.091C189.41 214.396 187.224 212.212 184.528 212.212C181.832 212.212 179.646 214.396 179.646 217.091C179.646 219.785 181.832 221.969 184.528 221.969Z"
    fill="#6BDE23" />
  <path
    d="M27.8044 250.97C29.5664 250.97 30.9948 249.543 30.9948 247.782C30.9948 246.021 29.5664 244.593 27.8044 244.593C26.0424 244.593 24.614 246.021 24.614 247.782C24.614 249.543 26.0424 250.97 27.8044 250.97Z"
    fill="#FF6584" />
  <path d="M43.9231 264.398H42.9467V300.699H43.9231V264.398Z" fill="#3F3D56" />
  <path
    d="M43.435 269.532C46.2721 269.532 48.5719 267.233 48.5719 264.398C48.5719 261.563 46.2721 259.265 43.435 259.265C40.598 259.265 38.2981 261.563 38.2981 264.398C38.2981 267.233 40.598 269.532 43.435 269.532Z"
    fill="#3F3D56" />
  <path d="M43.435 286.771C43.435 286.771 42.7012 270.998 27.6573 272.832L43.435 286.771Z" fill="#3F3D56" />
</svg>
